<svg width="29" height="29" viewBox="0 0 29 29" fill="none" xmlns="http://www.w3.org/2000/svg">
<path d="M25.4375 1.375H3.5625C2.98234 1.375 2.42594 1.60547 2.0157 2.0157C1.60547 2.42594 1.375 2.98234 1.375 3.5625V25.4375C1.375 26.0177 1.60547 26.5741 2.0157 26.9843C2.42594 27.3945 2.98234 27.625 3.5625 27.625H25.4375C26.0177 27.625 26.5741 27.3945 26.9843 26.9843C27.3945 26.5741 27.625 26.0177 27.625 25.4375V3.5625C27.625 2.98234 27.3945 2.42594 26.9843 2.0157C26.5741 1.60547 26.0177 1.375 25.4375 1.375Z" stroke="#661599" stroke-width="2" stroke-linejoin="round"/>
<path d="M14.5 17.8717V14.9551C15.3653 14.9551 16.2112 14.6985 16.9306 14.2178C17.6501 13.737 18.2108 13.0537 18.542 12.2543C18.8731 11.4549 18.9597 10.5752 18.7909 9.72656C18.6221 8.87789 18.2054 8.09834 17.5936 7.48649C16.9817 6.87463 16.2022 6.45795 15.3535 6.28914C14.5049 6.12033 13.6252 6.20697 12.8258 6.53811C12.0263 6.86924 11.3431 7.42999 10.8623 8.14946C10.3816 8.86892 10.125 9.71479 10.125 10.5801" stroke="#661599" stroke-width="2" stroke-linecap="round" stroke-linejoin="round"/>
</svg>
