<svg width="30" height="31" viewBox="0 0 30 31" fill="none" xmlns="http://www.w3.org/2000/svg">
<path d="M27 0.5H3C1.35 0.5 0 1.76562 0 3.3125V27.6875C0 29.2344 1.35 30.5 3 30.5H27C28.65 30.5 30 29.2344 30 27.6875V3.3125C30 1.76562 28.65 0.5 27 0.5ZM26 26.75H4V4.25H26V26.75ZM8 17.375H22V19.25H8V17.375ZM8 21.125H22V23H8V21.125ZM10 8.9375C10.0001 8.56803 10.0779 8.20221 10.2288 7.86092C10.3798 7.51962 10.6009 7.20954 10.8797 6.94837C11.1584 6.68721 11.4893 6.48008 11.8535 6.3388C12.2176 6.19753 12.6079 6.12488 13.002 6.125C13.3961 6.12512 13.7863 6.19802 14.1504 6.33952C14.5144 6.48102 14.8452 6.68836 15.1237 6.9497C15.4023 7.21104 15.6233 7.52126 15.7739 7.86265C15.9246 8.20404 16.0021 8.56991 16.002 8.93937C16.0017 9.68554 15.6853 10.4011 15.1223 10.9285C14.5593 11.4559 13.7959 11.7521 13 11.7519C12.2041 11.7516 11.4409 11.455 10.8783 10.9272C10.3157 10.3994 9.99973 9.68367 10 8.9375ZM15 11.75H11C9.35 11.75 8 12.5938 8 13.625V15.5H18V13.625C18 12.5938 16.65 11.75 15 11.75Z" fill="#661599"/>
</svg>
