<svg width="237" height="237" viewBox="0 0 237 237" fill="none" xmlns="http://www.w3.org/2000/svg">
<path fill-rule="evenodd" clip-rule="evenodd" d="M235.902 0C184.328 0 132.759 0 81.1849 0C-42.1955 18.8766 -13.3487 188.742 90.1242 179.629V136.467H61.7151C59.3238 136.467 57.3702 134.513 57.3702 132.122V114.159C57.3702 111.767 59.4556 110.138 61.7151 109.814C80.0786 106.255 96.2861 90.7253 102.095 73.1809C102.095 73.1809 103.653 68.6194 106.812 68.6194H149.221C151.155 68.6194 152.737 70.2011 152.737 72.1358V155.489C212.601 119.511 239.141 67.0989 235.902 0Z" fill="#661599"/>
<path fill-rule="evenodd" clip-rule="evenodd" d="M92.7559 204.103C90.6705 211.258 87.8131 228.751 91.1413 235.247C95.3308 237.309 147.879 237.073 150.817 235.167C154.088 232.578 152.756 224.363 152.761 216.733L152.794 156.026C129.346 165.512 100.565 177.275 92.7512 204.103H92.7559Z" fill="#661599"/>
</svg>
