<svg width="237" height="237" viewBox="0 0 237 237" fill="none" xmlns="http://www.w3.org/2000/svg">
<path fill-rule="evenodd" clip-rule="evenodd" d="M235.904 0C184.332 0 132.76 0 81.1856 0C-42.1982 18.8764 -13.3454 188.74 90.1227 179.63V136.471H61.7134C59.3233 136.471 57.37 134.518 57.37 132.128V114.166C57.37 111.776 59.4554 110.147 61.7134 109.822C80.0752 106.261 96.284 90.736 102.093 73.1867C102.093 73.1867 103.654 68.6233 106.809 68.6233H149.22C151.153 68.6233 152.737 70.2042 152.737 72.1406V155.493C212.599 119.514 239.14 67.0999 235.904 0.00338529V0Z" fill="white"/>
<path fill-rule="evenodd" clip-rule="evenodd" d="M92.7561 204.103C90.6741 211.256 87.8135 228.751 91.1413 235.248C95.3323 237.309 147.879 237.072 150.817 235.166C154.087 232.577 152.757 224.364 152.764 216.73L152.794 156.025C129.344 165.51 100.566 177.274 92.7527 204.103H92.7561Z" fill="white"/>
</svg>
