<svg width="35" height="37" viewBox="0 0 35 37" fill="none" xmlns="http://www.w3.org/2000/svg">
<path d="M17.5 28.1905C18.6603 28.1905 19.7731 27.8192 20.5936 27.1584C21.4141 26.4975 21.875 25.6012 21.875 24.6667C21.875 23.7321 21.4141 22.8358 20.5936 22.175C19.7731 21.5141 18.6603 21.1429 17.5 21.1429C16.3397 21.1429 15.2269 21.5141 14.4064 22.175C13.5859 22.8358 13.125 23.7321 13.125 24.6667C13.125 25.6012 13.5859 26.4975 14.4064 27.1584C15.2269 27.8192 16.3397 28.1905 17.5 28.1905ZM30.625 12.3333C31.7853 12.3333 32.8981 12.7046 33.7186 13.3654C34.5391 14.0263 35 14.9226 35 15.8571V33.4762C35 34.4108 34.5391 35.3071 33.7186 35.9679C32.8981 36.6287 31.7853 37 30.625 37H4.375C3.21468 37 2.10188 36.6287 1.28141 35.9679C0.460936 35.3071 0 34.4108 0 33.4762V15.8571C0 14.9226 0.460936 14.0263 1.28141 13.3654C2.10188 12.7046 3.21468 12.3333 4.375 12.3333H6.5625V8.80952C6.5625 6.47309 7.71484 4.23236 9.76602 2.58025C11.8172 0.928144 14.5992 0 17.5 0C18.9363 0 20.3586 0.227865 21.6856 0.670585C23.0126 1.11331 24.2183 1.76221 25.234 2.58025C26.2496 3.39829 27.0553 4.36944 27.6049 5.43826C28.1546 6.50709 28.4375 7.65264 28.4375 8.80952V12.3333H30.625ZM17.5 3.52381C15.7595 3.52381 14.0903 4.0807 12.8596 5.07196C11.6289 6.06322 10.9375 7.40767 10.9375 8.80952V12.3333H24.0625V8.80952C24.0625 7.40767 23.3711 6.06322 22.1404 5.07196C20.9097 4.0807 19.2405 3.52381 17.5 3.52381Z" fill="#661599"/>
</svg>
