<svg width="42" height="42" viewBox="0 0 42 42" fill="none" xmlns="http://www.w3.org/2000/svg">
<path d="M38.6214 40.7997L38.6219 40.8002C38.9111 41.0882 39.3025 41.25 39.7105 41.25C40.1186 41.25 40.51 41.0882 40.7992 40.8002L40.7997 40.7997C41.0881 40.5108 41.25 40.1191 41.25 39.7108C41.25 39.3025 41.0881 38.9108 40.7997 38.6219L40.7997 38.6219L33.0371 30.8482C34.1454 29.2934 34.745 27.4304 34.75 25.5167V25.516C34.75 21.8737 32.6402 18.7503 29.5961 17.2309V3.58063C29.5961 2.83002 29.2984 2.11008 28.7683 1.5792C28.2382 1.04831 27.5191 0.75 26.7692 0.75H3.57692C2.82706 0.75 2.10798 1.04831 1.57786 1.5792C1.04775 2.11008 0.75 2.83002 0.75 3.58063V37.1289C0.75 37.8795 1.04775 38.5994 1.57786 39.1303C2.10798 39.6612 2.82706 39.9595 3.57692 39.9595H26.7692C27.5191 39.9595 28.2382 39.6612 28.7683 39.1303C29.2984 38.5994 29.5961 37.8795 29.5961 37.1289V33.8008C30.0389 33.5788 30.4632 33.3218 30.865 33.0322L38.6214 40.7997ZM25.4808 31.7176C22.0682 31.7176 19.2885 28.9344 19.2885 25.516C19.2885 22.0976 22.0682 19.3144 25.4808 19.3144C28.8933 19.3144 31.6731 22.0976 31.6731 25.516C31.6731 28.9344 28.8933 31.7176 25.4808 31.7176ZM3.82692 3.83063H26.5192V16.2338H7.8108C6.81971 16.2338 5.90384 16.8692 5.90384 17.7741C5.90384 18.679 6.81971 19.3144 7.8108 19.3144H18.5999C17.4324 20.6226 16.6593 22.2393 16.3754 23.9757H7.44231C7.03416 23.9757 6.64281 24.1381 6.35432 24.427C6.06584 24.7159 5.90384 25.1076 5.90384 25.516C5.90384 25.9244 6.06584 26.3162 6.35432 26.6051C6.64281 26.894 7.03416 27.0563 7.44231 27.0563H16.3764C17.1137 31.4426 20.8867 34.7982 25.4808 34.7982C25.8394 34.7982 26.1871 34.7541 26.5192 34.7073V36.8789H3.82692V3.83063ZM7.44231 11.5725H22.9038C23.312 11.5725 23.7033 11.4102 23.9918 11.1213C24.2803 10.8324 24.4423 10.4406 24.4423 10.0322C24.4423 9.62382 24.2803 9.23207 23.9918 8.94318C23.7033 8.65427 23.312 8.4919 22.9038 8.4919H7.44231C7.03416 8.4919 6.64281 8.65427 6.35432 8.94318C6.06585 9.23207 5.90384 9.62382 5.90384 10.0322C5.90384 10.4406 6.06584 10.8324 6.35432 11.1213C6.64281 11.4102 7.03416 11.5725 7.44231 11.5725Z" fill="#661599" stroke="#661599" stroke-width="0.5"/>
</svg>
