<svg width="40" height="41" viewBox="0 0 40 41" fill="none" xmlns="http://www.w3.org/2000/svg">
<path d="M20 0.666992C22.6522 0.666992 25.1957 1.72056 27.0711 3.59592C28.9464 5.47129 30 8.01483 30 10.667C30 13.3192 28.9464 15.8627 27.0711 17.7381C25.1957 19.6134 22.6522 20.667 20 20.667C17.3478 20.667 14.8043 19.6134 12.9289 17.7381C11.0536 15.8627 10 13.3192 10 10.667C10 8.01483 11.0536 5.47129 12.9289 3.59592C14.8043 1.72056 17.3478 0.666992 20 0.666992ZM20 25.667C31.05 25.667 40 30.142 40 35.667V40.667H0V35.667C0 30.142 8.95 25.667 20 25.667Z" fill="#661599"/>
</svg>
