<svg width="40" height="40" viewBox="0 0 40 40" fill="none" xmlns="http://www.w3.org/2000/svg">
<path d="M8.42105 0.666667H8.42123C10.9923 0.665995 13.5126 1.33296 15.7096 2.59291C17.9063 3.85274 19.6943 5.65626 20.8841 7.80496L21.3847 8.70892L22.002 7.88026C23.2005 6.27135 24.7905 4.95605 26.6405 4.04763C28.4906 3.13916 30.5451 2.66503 32.6311 2.66667H32.6316H39.3333V7C39.3333 10.2596 37.9706 13.3932 35.5328 15.7091C33.0939 18.0261 29.779 19.3333 26.3158 19.3333H23.1579H22.4912V20V22V22.6667H23.1579H33.0175V36C33.0175 36.8727 32.6529 37.717 31.9918 38.3451C31.3295 38.9743 30.4243 39.3333 29.4737 39.3333H12.6316C11.681 39.3333 10.7757 38.9743 10.1135 38.3451C9.45233 37.717 9.08772 36.8727 9.08772 36V22.6667H18.9474H19.614V22V18V17.3333H18.9474H14.7368C10.9945 17.3333 7.41184 15.9207 4.77549 13.4162C2.14029 10.9127 0.666667 7.52486 0.666667 4V0.666667H8.42105ZM30.1404 26V25.3333H29.4737H12.6316H11.9649V26V36V36.6667H12.6316H29.4737H30.1404V36V26ZM36.4561 6V5.33333H35.7895H32.6316C29.9529 5.33333 27.3775 6.34391 25.4735 8.15271C23.5683 9.96261 22.4912 12.4249 22.4912 15V16V16.6667H23.1579H26.3158C27.6428 16.6667 28.9576 16.4184 30.1853 15.9353C31.4131 15.4522 32.5308 14.7432 33.4739 13.8473C34.417 12.9513 35.167 11.8858 35.6794 10.7106C36.1919 9.5353 36.4561 8.27433 36.4561 7V6ZM4.21053 3.33333H3.54386V4C3.54386 6.84033 4.73188 9.55696 6.83445 11.5544C8.93585 13.5507 11.779 14.6667 14.7368 14.6667H18.9474H19.614V14C19.614 11.1597 18.426 8.44304 16.3234 6.4456C14.222 4.44926 11.3789 3.33333 8.42105 3.33333H4.21053Z" fill="#661599" stroke="#661599" stroke-width="1.33333"/>
</svg>
