<svg width="32" height="34" viewBox="0 0 32 34" fill="none" xmlns="http://www.w3.org/2000/svg">
<path d="M30.9605 29.3243L30.9606 29.3244C31.2197 29.593 31.3943 29.9331 31.4649 30.3008C31.5354 30.6684 31.4993 31.0496 31.3604 31.3969C31.2215 31.7443 30.9851 32.0441 30.6785 32.2564C30.3718 32.4687 30.0093 32.5832 29.6368 32.5833C29.6367 32.5833 29.6365 32.5833 29.6363 32.5833L29.6363 32.0833C29.4572 32.0835 29.2799 32.0471 29.1144 31.976L30.9605 29.3243ZM30.9605 29.3243L23.5168 21.6118M30.9605 29.3243L23.5168 21.6118M23.5168 21.6118C25.161 19.334 26.0496 16.5639 26.0454 13.7159L23.5168 21.6118ZM20.8896 24.3257L28.312 32.0161L26.0454 13.7151C26.045 6.43351 20.3435 0.5 13.2727 0.5C6.20205 0.5 0.5 6.43392 0.5 13.7159C0.5 20.9979 6.20205 26.9318 13.2727 26.9318C16.1281 26.9318 18.7642 25.9618 20.8896 24.3257ZM13.2727 23.1061C8.29361 23.1061 4.22727 18.9188 4.22727 13.7159C4.22727 8.513 8.29361 4.32576 13.2727 4.32576C18.2521 4.32576 22.3181 8.51298 22.3181 13.7159C22.3181 18.9188 18.2521 23.1061 13.2727 23.1061Z" fill="#661599" stroke="#661599"/>
</svg>
