<svg width="38" height="38" viewBox="0 0 38 38" fill="none" xmlns="http://www.w3.org/2000/svg">
<path d="M33.397 22.5604L33.232 20.902L33.177 20.907L33.1237 20.917L33.397 22.5604ZM33.397 22.5604L33.5637 24.2187L33.6187 24.2137L33.672 24.2054L33.397 22.5604ZM26.6637 31.697L27.7187 30.407L27.7054 30.397L26.6637 31.697ZM26.6637 31.697L25.6087 32.987L25.622 32.9987L26.6637 31.697ZM11.337 31.697L10.282 30.4087L10.2554 30.4304L10.2304 30.452L11.337 31.697ZM11.337 31.697L12.392 32.9887L12.4187 32.967L12.4437 32.9437L11.337 31.697ZM4.60203 15.4404V13.7737H4.51869L4.43703 13.782L4.60203 15.4404ZM4.60203 15.4404V17.107H4.68536L4.76869 17.0987L4.60203 15.4404ZM24.2187 4.43536C24.1912 4.11478 24.1517 3.79517 24.1037 3.47703C24.0523 3.12678 23.9454 2.78697 23.787 2.47036L20.8254 4.00036C20.787 3.92536 20.7954 3.89869 20.817 4.03036C20.842 4.17869 20.8637 4.38536 20.902 4.76869L24.2187 4.43536ZM24.377 6.01869C24.482 6.15536 24.447 6.21703 24.3887 5.89203C24.3337 5.58203 24.2904 5.14703 24.2187 4.43536L20.9004 4.76703C20.967 5.42369 21.0237 6.01369 21.1087 6.48369C21.1904 6.93369 21.3337 7.52536 21.7254 8.03869L24.377 6.01869ZM24.377 6.01869L21.7254 8.03869C22.082 8.50677 22.5563 8.87208 23.0999 9.09748C23.6435 9.32289 24.2371 9.40036 24.8204 9.32203L24.377 6.01869ZM25.607 5.01036C25.2335 5.32605 24.8494 5.629 24.4554 5.91869C24.1837 6.10703 24.2054 6.04036 24.377 6.01869L24.8204 9.32203C25.4604 9.23536 25.9804 8.91869 26.357 8.65536C26.7487 8.38536 27.207 8.00869 27.717 7.59036L25.607 5.01036ZM27.3004 3.92703C26.9649 4.03863 26.6492 4.20291 26.3654 4.41369C26.132 4.58036 25.8704 4.79536 25.607 5.01036L27.717 7.59036C28.0154 7.34703 28.177 7.21536 28.3004 7.12869C28.4087 7.05036 28.3937 7.07703 28.3154 7.10203L27.3004 3.92703ZM29.6404 4.04369C28.9002 3.72293 28.0688 3.68148 27.3004 3.92703L28.3154 7.10203L29.6404 4.04369ZM31.217 5.29036C30.9926 5.05963 30.7608 4.83618 30.522 4.62036C30.2601 4.38247 29.9619 4.18781 29.6387 4.04369L28.3154 7.10203C28.2387 7.06869 28.227 7.04203 28.327 7.13036C28.4404 7.23036 28.5887 7.37536 28.8604 7.64703L31.217 5.29036ZM32.707 6.78036L31.217 5.29036L28.8604 7.64703L30.3504 9.13703L32.707 6.78036ZM33.9537 8.35703C33.8096 8.03384 33.6149 7.73566 33.377 7.47369C33.1612 7.23546 32.9377 7.00423 32.707 6.78036L30.3504 9.13869C30.622 9.41036 30.767 9.55869 30.867 9.67203C30.9554 9.77203 30.9287 9.76036 30.8954 9.68369L33.9537 8.35703ZM34.0704 10.697C34.3159 9.92861 34.2745 9.09721 33.9537 8.35703L30.8954 9.68369L34.0704 10.697ZM32.987 12.3904C33.194 12.144 33.393 11.8911 33.5837 11.632C33.7604 11.3854 33.9504 11.0787 34.0704 10.697L30.8954 9.68369C30.9204 9.60536 30.9454 9.58869 30.8687 9.69869C30.782 9.82036 30.652 9.98203 30.407 10.2804L32.987 12.3904ZM31.9787 13.622C31.957 13.7937 31.8904 13.8137 32.0787 13.542C32.257 13.2837 32.5337 12.9437 32.987 12.3904L30.407 10.2804C29.9904 10.7904 29.612 11.2487 29.3404 11.6404C29.0787 12.017 28.762 12.537 28.6754 13.177L31.9787 13.622ZM31.9787 13.622L28.6754 13.177C28.597 13.7603 28.6745 14.3539 28.8999 14.8975C29.1253 15.4411 29.4906 15.9153 29.9587 16.272L31.9787 13.622ZM33.562 13.7804C33.0747 13.7396 32.5888 13.6823 32.1054 13.6087C31.7804 13.5504 31.842 13.517 31.9787 13.622L29.9587 16.272C30.472 16.6637 31.062 16.807 31.5154 16.8887C31.9837 16.972 32.5737 17.0304 33.2304 17.097L33.562 13.7804ZM35.527 14.2104C35.2104 14.052 34.8706 13.9451 34.5204 13.8937C34.2022 13.8456 33.8826 13.8078 33.562 13.7804L33.2304 17.097C33.4771 17.1187 33.7233 17.1465 33.9687 17.1804C34.102 17.2037 34.0737 17.212 33.9987 17.1737L35.527 14.2104ZM37.0987 15.9487C36.8025 15.1981 36.244 14.5805 35.527 14.2104L34.0004 17.177L37.0987 15.9487ZM37.332 17.9454C37.332 17.6054 37.332 17.267 37.3137 16.9804C37.2968 16.6266 37.2237 16.2778 37.097 15.947L34.0004 17.177C33.9704 17.0987 33.9804 17.072 33.9904 17.2054C34.0004 17.3554 34.0004 17.5637 34.0004 17.9487L37.332 17.9454ZM37.332 20.052V17.9454H33.9987V20.052H37.332ZM37.0987 22.0487C37.2454 21.677 37.2937 21.3204 37.3137 21.0154C37.332 20.7304 37.332 20.392 37.332 20.052H33.9987C33.9987 20.437 33.9987 20.6454 33.9887 20.7954C33.9787 20.9287 33.9687 20.902 33.9987 20.8237L37.0987 22.0487ZM35.527 23.787C36.244 23.4169 36.8025 22.7993 37.0987 22.0487L34.0004 20.8254L35.527 23.787ZM33.562 24.217C33.902 24.1837 34.237 24.1504 34.5204 24.1037C34.8204 24.0537 35.1704 23.9704 35.527 23.787L34.0004 20.8254C34.0737 20.787 34.102 20.7954 33.9704 20.817C33.7251 20.8522 33.4789 20.8806 33.232 20.902L33.562 24.217ZM31.9804 24.3754C31.842 24.4804 31.7804 24.447 32.1054 24.3887C32.4154 24.3337 32.8504 24.2887 33.562 24.217L33.2304 20.9004C32.5754 20.967 31.9837 21.0237 31.5154 21.1087C31.0637 21.1904 30.472 21.3337 29.9587 21.7254L31.9804 24.3754ZM31.9804 24.3754L29.9587 21.7254C29.4906 22.082 29.1253 22.5563 28.8999 23.0999C28.6745 23.6435 28.597 24.2371 28.6754 24.8204L31.9804 24.3754ZM32.987 25.6054C32.6714 25.2324 32.3684 24.8488 32.0787 24.4554C31.8904 24.1837 31.9587 24.2037 31.9804 24.3754L28.6754 24.8204C28.762 25.4604 29.0787 25.9804 29.342 26.357C29.6137 26.7487 29.9904 27.207 30.407 27.717L32.987 25.6054ZM34.0704 27.2987C33.9586 26.9638 33.7943 26.6487 33.5837 26.3654C33.417 26.1304 33.202 25.8704 32.987 25.6054L30.407 27.717C30.6504 28.0154 30.782 28.1754 30.8687 28.2987C30.947 28.407 30.922 28.3937 30.8954 28.3154L34.0704 27.2987ZM33.9537 29.6404C34.2749 28.8997 34.3163 28.0676 34.0704 27.2987L30.8954 28.3154L33.9537 29.6404ZM32.707 31.217C32.9487 30.9754 33.187 30.7387 33.377 30.522C33.577 30.292 33.7937 30.007 33.9537 29.6387L30.8954 28.3137C30.9287 28.237 30.9554 28.227 30.867 28.327C30.767 28.4404 30.622 28.587 30.3504 28.8604L32.707 31.217ZM31.217 32.7054L32.707 31.217L30.3504 28.8604L28.8604 30.3487L31.217 32.7054ZM29.6404 33.9537C29.9637 33.8091 30.2618 33.6138 30.5237 33.3754C30.7387 33.187 30.977 32.947 31.217 32.7054L28.8604 30.3487C28.6874 30.5258 28.5096 30.6981 28.327 30.8654C28.227 30.9554 28.2387 30.9287 28.3154 30.8954L29.6404 33.9537ZM27.3004 34.0704C28.0688 34.3159 28.9002 34.2745 29.6404 33.9537L28.3154 30.8954L27.3004 34.0704ZM25.607 32.987C25.8704 33.202 26.1304 33.417 26.3654 33.5837C26.612 33.7587 26.9187 33.9487 27.3004 34.0704L28.3154 30.8954C28.3937 30.9204 28.4087 30.9454 28.2987 30.8687C28.1006 30.7202 27.9066 30.5663 27.717 30.407L25.607 32.987ZM24.377 31.9804C24.2054 31.9554 24.1837 31.8887 24.4554 32.077C24.7137 32.257 25.052 32.532 25.6054 32.9854L27.717 30.407C27.207 29.9887 26.7487 29.612 26.357 29.3404C25.9804 29.077 25.4604 28.762 24.8204 28.6754L24.377 31.9804ZM24.377 31.9804L24.8204 28.6754C24.2371 28.597 23.6435 28.6745 23.0999 28.8999C22.5563 29.1253 22.082 29.4906 21.7254 29.9587L24.377 31.9804ZM24.217 33.562C24.2887 32.8504 24.3337 32.4137 24.3887 32.1054C24.447 31.7804 24.4804 31.8404 24.3754 31.9787L21.7254 29.957C21.3337 30.4704 21.1904 31.062 21.1087 31.5137C21.0254 31.9837 20.9687 32.5737 20.902 33.2304L24.217 33.562ZM23.7854 35.527C23.9687 35.1704 24.052 34.8204 24.102 34.5204C24.152 34.237 24.182 33.902 24.217 33.562L20.902 33.2304C20.88 33.4778 20.8511 33.7229 20.8154 33.9687C20.7937 34.102 20.7854 34.0737 20.8237 33.9987L23.7854 35.527ZM22.0504 37.0987C22.7997 36.8018 23.4161 36.2434 23.7854 35.527L20.8254 34.0004L22.0504 37.0987ZM20.0504 37.332C20.392 37.332 20.7304 37.332 21.017 37.3137C21.3204 37.2937 21.677 37.2487 22.0504 37.0987L20.8254 34.0004C20.9037 33.9704 20.9304 33.9804 20.797 33.9904C20.5494 34.0006 20.3015 34.0039 20.0537 34.0004L20.0504 37.332ZM17.9454 37.332H20.0504L20.052 33.9987H17.9454V37.332ZM15.9487 37.0987C16.3204 37.2454 16.677 37.2937 16.982 37.3137C17.267 37.332 17.6054 37.332 17.9454 37.332V33.9987C17.5604 33.9987 17.352 33.9987 17.202 33.9887C17.0687 33.9787 17.0954 33.9687 17.1737 33.9987L15.9487 37.0987ZM14.2104 35.527C14.5805 36.244 15.1981 36.8025 15.9487 37.0987L17.1737 33.9987L14.2104 35.527ZM13.7804 33.562C13.8137 33.902 13.847 34.237 13.8937 34.5204C13.9437 34.8204 14.027 35.1704 14.2104 35.527L17.177 34.0004C17.2154 34.0737 17.207 34.102 17.1854 33.9704C17.1502 33.7251 17.1218 33.4789 17.1004 33.232L13.7804 33.562ZM13.622 31.9787C13.517 31.842 13.5504 31.7787 13.6087 32.1054C13.6637 32.4137 13.7087 32.8504 13.7804 33.562L17.097 33.2304C17.0304 32.5737 16.9737 31.9837 16.8887 31.5137C16.807 31.0637 16.6637 30.472 16.272 29.9587L13.622 31.9787ZM13.622 31.9787L16.272 29.9587C15.9153 29.4906 15.4411 29.1253 14.8975 28.8999C14.3539 28.6745 13.7603 28.597 13.177 28.6754L13.622 31.9787ZM12.3904 32.987C12.9454 32.5337 13.2837 32.257 13.542 32.0787C13.8137 31.8904 13.7937 31.957 13.622 31.9787L13.177 28.6754C12.537 28.762 12.017 29.0787 11.6404 29.342C11.2487 29.612 10.7904 29.9887 10.2804 30.407L12.3904 32.987ZM10.697 34.0704C11.0325 33.9588 11.3481 33.7945 11.632 33.5837C11.8654 33.417 12.127 33.202 12.3904 32.987L10.282 30.4087C10.0919 30.568 9.89906 30.7219 9.70036 30.8704C9.59203 30.9487 9.60703 30.9237 9.68536 30.897L10.697 34.0704ZM8.35703 33.9537C9.09721 34.2745 9.92861 34.3159 10.697 34.0704L9.68203 30.8954L8.35703 33.9537ZM6.77869 32.707C7.02036 32.9487 7.25869 33.187 7.47536 33.377C7.70369 33.577 7.98869 33.7954 8.35869 33.9554L9.68203 30.8954C9.75869 30.9287 9.77036 30.9554 9.67036 30.867C9.48782 30.6998 9.30997 30.5275 9.13703 30.3504L6.77869 32.707ZM5.29036 31.217L6.78036 32.707L9.13703 30.3504L7.64703 28.8604L5.29036 31.217ZM4.04369 29.6404C4.20203 30.007 4.42036 30.2937 4.62036 30.5237C4.81036 30.7387 5.04869 30.977 5.29036 31.217L7.64703 28.8604C7.46989 28.6874 7.2976 28.5096 7.13036 28.327C7.04203 28.227 7.06869 28.2387 7.10203 28.3154L4.04369 29.6404ZM3.92703 27.3004C3.68148 28.0688 3.72293 28.9002 4.04369 29.6404L7.10203 28.3154L3.92703 27.3004ZM5.01036 25.607C4.80339 25.8533 4.6044 26.1062 4.41369 26.3654C4.20291 26.6492 4.03863 26.9649 3.92703 27.3004L7.10203 28.3154C7.07536 28.3937 7.05203 28.4087 7.12869 28.2987C7.21536 28.177 7.34536 28.0154 7.59036 27.717L5.01036 25.607ZM6.01703 24.3754C6.04036 24.2037 6.10703 24.1837 5.91869 24.4554C5.74036 24.7137 5.46369 25.0537 5.01036 25.607L7.59036 27.717C8.00703 27.207 8.38536 26.7487 8.65703 26.357C8.91869 25.9804 9.23536 25.4604 9.32203 24.8204L6.01703 24.3754ZM6.01703 24.3754L9.32203 24.8204C9.40036 24.2371 9.32289 23.6435 9.09748 23.0999C8.87208 22.5563 8.50677 22.082 8.03869 21.7254L6.01703 24.3754ZM4.43369 24.217C5.14703 24.2887 5.58369 24.3337 5.89203 24.3887C6.21703 24.447 6.15536 24.4804 6.01703 24.3754L8.03869 21.7254C7.52536 21.3337 6.93536 21.1904 6.48203 21.1087C6.01369 21.0254 5.42369 20.967 4.76536 20.9004L4.43369 24.217ZM2.47036 23.787C2.82703 23.9704 3.17703 24.0537 3.47703 24.1037C3.76036 24.1504 4.09536 24.1854 4.43536 24.2187L4.76536 20.9004C4.51852 20.8794 4.27398 20.8517 4.02869 20.817C3.89536 20.7937 3.92369 20.7854 3.99869 20.8237L2.47036 23.787ZM0.900359 22.0504C1.19658 22.8009 1.755 23.4186 2.47203 23.7887L4.00036 20.8254L0.900359 22.0504ZM0.667026 20.0537C0.667026 20.3937 0.667026 20.732 0.68536 21.0187C0.70536 21.322 0.752026 21.6787 0.902026 22.052L4.00036 20.8237C4.03036 20.902 4.02036 20.9287 4.01203 20.7954C4.00126 20.5483 3.99737 20.301 4.00036 20.0537H0.667026ZM0.667026 17.947V20.0537H4.00036V17.947H0.667026ZM0.900359 15.9487C0.774269 16.2795 0.701693 16.6283 0.68536 16.982C0.66536 17.2687 0.667026 17.607 0.667026 17.9487H4.00036C4.00036 17.562 4.00036 17.3537 4.01203 17.2037C4.02036 17.0704 4.03036 17.097 4.00036 17.1754L0.900359 15.9487ZM2.47203 14.2137C1.7556 14.583 1.19726 15.1994 0.900359 15.9487L4.00036 17.1754L2.47203 14.2137ZM4.43703 13.7804C4.09703 13.8154 3.76203 13.847 3.47869 13.897C3.17869 13.947 2.82869 14.0304 2.47203 14.2137L4.00036 17.1754C3.92536 17.2137 3.89869 17.2054 4.03036 17.1837C4.27563 17.1485 4.52184 17.1202 4.76869 17.0987L4.43703 13.7804ZM6.02036 13.6237C6.15869 13.5187 6.22036 13.552 5.89369 13.6104C5.58536 13.6654 5.14869 13.7104 4.43703 13.782L4.76869 17.0987C5.42369 17.032 6.01536 16.9754 6.48536 16.8904C6.93703 16.8087 7.52869 16.6654 8.04203 16.2737L6.02036 13.6237ZM6.02036 13.6237L8.04203 16.2737C8.5098 15.9168 8.87478 15.4425 9.09989 14.8989C9.325 14.3553 9.40221 13.7618 9.32369 13.1787L6.02036 13.6237ZM5.01203 12.392C5.46536 12.9454 5.74203 13.2854 5.92203 13.5437C6.11036 13.8154 6.04369 13.7954 6.02036 13.6237L9.32369 13.1787C9.23703 12.5387 8.92203 12.0204 8.65869 11.642C8.38703 11.2504 8.00869 10.792 7.59203 10.282L5.01203 12.392ZM3.92869 10.697C4.05036 11.0804 4.23869 11.3854 4.41536 11.6337C4.58203 11.867 4.79703 12.1287 5.01203 12.392L7.59203 10.282C7.43274 10.0919 7.27879 9.89906 7.13036 9.70036C7.05203 9.59203 7.07869 9.60536 7.10369 9.68369L3.92869 10.697ZM4.04536 8.35869C3.72502 9.09839 3.68357 9.92912 3.92869 10.697L7.10369 9.68369L4.04536 8.35869ZM5.29203 6.78036C5.05036 7.02203 4.81203 7.25869 4.62203 7.47536C4.38414 7.73733 4.18948 8.03551 4.04536 8.35869L7.10369 9.68369C7.07036 9.76036 7.04369 9.77203 7.13203 9.67036C7.23203 9.55703 7.37703 9.41036 7.64869 9.13703L5.29203 6.78036ZM6.78203 5.29203L5.29203 6.78036L7.64869 9.13703L9.14036 7.64869L6.78203 5.29203ZM8.35869 4.04369C8.03539 4.18832 7.73721 4.38354 7.47536 4.62203C7.23713 4.83787 7.0059 5.06132 6.78203 5.29203L9.14036 7.64869C9.41203 7.37536 9.55869 7.23036 9.67203 7.13203C9.77203 7.04203 9.76036 7.06869 9.68369 7.10203L8.35869 4.04369ZM10.6987 3.92703C9.93027 3.68148 9.09888 3.72293 8.35869 4.04369L9.68369 7.10203L10.6987 3.92703ZM12.3904 5.01036C12.127 4.79536 11.8687 4.58203 11.6337 4.41536C11.3499 4.20399 11.0343 4.03915 10.6987 3.92703L9.68369 7.10203C9.60536 7.07703 9.59036 7.05203 9.70036 7.12869C9.82203 7.21703 9.98369 7.34703 10.282 7.59203L12.3904 5.01036ZM13.6237 6.01869C13.7954 6.04203 13.8154 6.10869 13.5437 5.92036C13.1502 5.63064 12.7667 5.32768 12.3937 5.01203L10.282 7.59203C10.792 8.00869 11.2487 8.38536 11.6404 8.65869C12.017 8.92036 12.537 9.23536 13.177 9.32203L13.6237 6.01869ZM13.6237 6.01869L13.1787 9.32203C13.7619 9.40036 14.3555 9.32289 14.8992 9.09748C15.4428 8.87208 15.917 8.50677 16.2737 8.03869L13.6237 6.01869ZM13.782 4.43536C13.7104 5.14869 13.6654 5.58536 13.6104 5.89369C13.552 6.21869 13.5187 6.15703 13.6237 6.01869L16.2737 8.03869C16.6654 7.52536 16.8087 6.93536 16.8904 6.48369C16.9737 6.01536 17.0337 5.42369 17.0987 4.76703L13.782 4.43536ZM14.212 2.47203C14.0537 2.78864 13.9468 3.12845 13.8954 3.47869C13.8487 3.76203 13.8154 4.09703 13.782 4.43703L17.0987 4.76703C17.1204 4.52026 17.1482 4.27574 17.182 4.03036C17.2054 3.89703 17.2137 3.92703 17.1754 4.00036L14.212 2.47203ZM15.9504 0.900359C15.1998 1.19658 14.5821 1.755 14.212 2.47203L17.1754 4.00036L15.9504 0.900359ZM17.947 0.667026C17.607 0.667026 17.2687 0.667026 16.982 0.68536C16.6283 0.701693 16.2795 0.774269 15.9487 0.900359L17.177 4.00036C17.0987 4.03036 17.072 4.02036 17.2054 4.01203C17.3554 4.00203 17.5637 4.00036 17.9487 4.00036L17.947 0.667026ZM20.0537 0.667026H17.947V4.00036H20.0537V0.667026ZM22.0504 0.900359C21.7195 0.774269 21.3707 0.701693 21.017 0.68536C20.7337 0.66536 20.3954 0.667026 20.0554 0.667026V4.00036C20.4404 4.00036 20.6487 4.00036 20.7987 4.01203C20.932 4.02036 20.9037 4.03036 20.8254 4.00036L22.0504 0.900359ZM23.7887 2.47203C23.4186 1.755 22.8009 1.19658 22.0504 0.900359L20.8254 4.00036L23.7887 2.47203ZM24.0004 19.0004C24.0004 20.3264 23.4736 21.5982 22.5359 22.5359C21.5982 23.4736 20.3264 24.0004 19.0004 24.0004V27.3337C21.2105 27.3337 23.3301 26.4557 24.8929 24.8929C26.4557 23.3301 27.3337 21.2105 27.3337 19.0004H24.0004ZM19.0004 14.0004C20.3264 14.0004 21.5982 14.5271 22.5359 15.4648C23.4736 16.4025 24.0004 17.6743 24.0004 19.0004H27.3337C27.3337 16.7902 26.4557 14.6706 24.8929 13.1078C23.3301 11.545 21.2105 10.667 19.0004 10.667V14.0004ZM14.0004 19.0004C14.0004 17.6743 14.5271 16.4025 15.4648 15.4648C16.4025 14.5271 17.6743 14.0004 19.0004 14.0004V10.667C16.7902 10.667 14.6706 11.545 13.1078 13.1078C11.545 14.6706 10.667 16.7902 10.667 19.0004H14.0004ZM19.0004 24.0004C17.6743 24.0004 16.4025 23.4736 15.4648 22.5359C14.5271 21.5982 14.0004 20.3264 14.0004 19.0004H10.667C10.667 21.2105 11.545 23.3301 13.1078 24.8929C14.6706 26.4557 16.7902 27.3337 19.0004 27.3337V24.0004Z" fill="#661599"/>
</svg>
