<svg width="40" height="40" viewBox="0 0 40 40" fill="none" xmlns="http://www.w3.org/2000/svg">
<path d="M4.44444 36.6667H14.8889V39.3333H4.44444C3.42117 39.3333 2.45211 38.9668 1.74772 38.3329C1.04565 37.701 0.666667 36.86 0.666667 36V4C0.666667 3.13997 1.04565 2.29897 1.74772 1.6671C2.45211 1.03315 3.42117 0.666667 4.44444 0.666667H31.1111C32.1344 0.666667 33.1034 1.03315 33.8078 1.6671C34.5099 2.29897 34.8889 3.13997 34.8889 4V15.3333H31.7778V4V3.33333H31.1111H4.44444H3.77778V4V36V36.6667H4.44444ZM30.4444 28V28.6667H31.1111C31.545 28.6667 31.9488 28.8224 32.2365 29.0813C32.5218 29.3381 32.6667 29.6704 32.6667 30C32.6667 30.3296 32.5218 30.6619 32.2365 30.9187C31.9488 31.1776 31.545 31.3333 31.1111 31.3333H28.8889C28.455 31.3333 28.0512 31.1776 27.7635 30.9187C27.4782 30.6619 27.3333 30.3296 27.3333 30V27C27.3333 26.6704 27.4782 26.3381 27.7635 26.0813C28.0512 25.8224 28.455 25.6667 28.8889 25.6667C29.3228 25.6667 29.7266 25.8224 30.0143 26.0813C30.2996 26.3381 30.4444 26.6704 30.4444 27V28ZM9.55556 12C9.55556 11.6704 9.70042 11.3381 9.98574 11.0813C10.2734 10.8224 10.6772 10.6667 11.1111 10.6667H24.4444C24.8783 10.6667 25.2822 10.8224 25.5698 11.0813C25.8551 11.3381 26 11.6704 26 12C26 12.3296 25.8551 12.6619 25.5698 12.9187C25.2822 13.1776 24.8783 13.3333 24.4444 13.3333H11.1111C10.6772 13.3333 10.2734 13.1776 9.98574 12.9187C9.70042 12.6619 9.55556 12.3296 9.55556 12ZM9.55556 20C9.55556 19.6704 9.70042 19.3381 9.98574 19.0813C10.2734 18.8224 10.6772 18.6667 11.1111 18.6667H13.3333C13.7672 18.6667 14.1711 18.8224 14.4587 19.0813C14.744 19.3381 14.8889 19.6704 14.8889 20C14.8889 20.3296 14.744 20.6619 14.4587 20.9187C14.1711 21.1776 13.7672 21.3333 13.3333 21.3333H11.1111C10.6772 21.3333 10.2734 21.1776 9.98574 20.9187C9.70042 20.6619 9.55556 20.3296 9.55556 20ZM28.8889 23.3333C26.9653 23.3333 25.1082 24.0204 23.7289 25.2618C22.3472 26.5053 21.5556 28.2079 21.5556 30C21.5556 31.7921 22.3472 33.4947 23.7289 34.7382C25.1082 35.9796 26.9653 36.6667 28.8889 36.6667C30.8125 36.6667 32.6696 35.9796 34.0489 34.7382C35.4306 33.4947 36.2222 31.7921 36.2222 30C36.2222 28.2079 35.4306 26.5053 34.0489 25.2618C32.6696 24.0204 30.8125 23.3333 28.8889 23.3333ZM18.4444 30C18.4444 27.5487 19.5258 25.1815 21.4781 23.4245C23.4328 21.6653 26.0975 20.6667 28.8889 20.6667C31.6803 20.6667 34.345 21.6653 36.2997 23.4245C38.252 25.1815 39.3333 27.5487 39.3333 30C39.3333 32.4513 38.252 34.8185 36.2997 36.5755C34.345 38.3347 31.6803 39.3333 28.8889 39.3333C26.0975 39.3333 23.4328 38.3347 21.4781 36.5755C19.5258 34.8185 18.4444 32.4513 18.4444 30Z" fill="#661599" stroke="#661599" stroke-width="1.33333"/>
</svg>
